<?xml version="1.0" encoding="UTF-8" standalone="no"?>
<!-- Created with Inkscape (http://www.inkscape.org/) -->

<svg
   xmlns:dc="http://purl.org/dc/elements/1.1/"
   xmlns:cc="http://creativecommons.org/ns#"
   xmlns:rdf="http://www.w3.org/1999/02/22-rdf-syntax-ns#"
   xmlns:svg="http://www.w3.org/2000/svg"
   xmlns="http://www.w3.org/2000/svg"
   xmlns:sodipodi="http://sodipodi.sourceforge.net/DTD/sodipodi-0.dtd"
   xmlns:inkscape="http://www.inkscape.org/namespaces/inkscape"
   width="122.52968mm"
   height="27.516666mm"
   viewBox="0 0 122.52968 27.516666"
   version="1.1"
   id="svg7162"
   inkscape:version="0.92.2 (5c3e80d, 2017-08-06)"
   sodipodi:docname="c_by_qunis.svg">
  <defs
     id="defs7156" />
  <sodipodi:namedview
     id="base"
     pagecolor="#ffffff"
     bordercolor="#666666"
     borderopacity="1.0"
     inkscape:pageopacity="0.0"
     inkscape:pageshadow="2"
     inkscape:zoom="1.979899"
     inkscape:cx="158.85154"
     inkscape:cy="140.73398"
     inkscape:document-units="mm"
     inkscape:current-layer="layer3"
     showgrid="false"
     inkscape:window-width="1920"
     inkscape:window-height="1017"
     inkscape:window-x="-8"
     inkscape:window-y="-8"
     inkscape:window-maximized="1" />
  <metadata
     id="metadata7159">
    <rdf:RDF>
      <cc:Work
         rdf:about="">
        <dc:format>image/svg+xml</dc:format>
        <dc:type
           rdf:resource="http://purl.org/dc/dcmitype/StillImage" />
        <dc:title />
      </cc:Work>
    </rdf:RDF>
  </metadata>
  <g
     inkscape:groupmode="layer"
     id="layer3"
     inkscape:label="Ebene 2"
     transform="translate(51.307683,-15.699643)"
     style="display:inline">
    <text
       xml:space="preserve"
       style="font-style:normal;font-weight:normal;font-size:9.82047844px;line-height:1.25;font-family:sans-serif;letter-spacing:0px;word-spacing:0px;fill:#000000;fill-opacity:1;stroke:none;stroke-width:0.24551196"
       x="-55.796753"
       y="35.567593"
       id="text7190"
       transform="scale(0.92791927,1.07768)"><tspan
         sodipodi:role="line"
         id="tspan7188"
         x="-55.796753"
         y="35.567593"
         style="fill:#666666;stroke-width:0.24551196">copyright by</tspan></text>
    <path
       transform="translate(-396.06239,-194.79523)"
       style="fill:#000000;stroke-width:0.06136611"
       d="m 415.20328,234.35696 -0.83762,-0.97812 -0.38757,0.18136 c -0.50375,0.23573 -1.18906,0.36346 -1.95014,0.36346 -2.27371,0 -3.76649,-1.23948 -4.20069,-3.48793 -0.0718,-0.37196 -0.087,-1.64422 -0.087,-7.31389 0,-7.49203 -0.0112,-7.23372 0.35655,-8.18095 0.36548,-0.94121 1.09464,-1.73893 1.99175,-2.17902 0.69912,-0.34297 1.12648,-0.43908 1.95226,-0.43908 0.83201,0 1.3059,0.10387 2.01346,0.44133 0.88768,0.42336 1.70294,1.34359 2.03728,2.29955 0.30383,0.8688 0.30131,0.80149 0.30131,8.05368 0,4.47784 -0.022,6.91914 -0.0645,7.1591 -0.14916,0.84214 -0.55445,1.77335 -0.9805,2.25279 l -0.23028,0.25915 0.43993,0.49093 c 0.24196,0.27 0.75218,0.84302 1.13383,1.27335 l 0.69392,0.78242 h -0.67222 -0.67221 z m -2.41334,-1.44326 c 1.23655,-0.22044 2.00272,-0.90492 2.45139,-2.19 l 0.20042,-0.57405 0.0169,-6.85424 c 0.0187,-7.60386 0.0318,-7.32326 -0.38354,-8.19792 -0.42786,-0.90097 -1.26557,-1.55056 -2.27208,-1.76189 -1.86871,-0.39234 -3.47017,0.60274 -3.99938,2.48506 -0.10559,0.37556 -0.11215,0.80253 -0.11215,7.30257 0,7.71606 -0.026,7.22831 0.43776,8.20696 0.60185,1.27007 2.00769,1.87819 3.6607,1.58351 z m 47.63317,1.01142 c -0.90273,-0.19567 -1.57868,-0.56325 -2.12882,-1.15764 -0.72905,-0.7877 -1.21563,-2.19495 -1.21563,-3.51569 v -0.48289 h 0.45118 0.4512 l 0.0419,0.59554 c 0.0907,1.29023 0.40888,2.11188 1.07813,2.78408 0.68483,0.68785 1.39712,0.94181 2.64146,0.94181 0.90051,0 1.3272,-0.0941 2.06378,-0.45501 1.42981,-0.70064 2.08372,-2.2753 1.79798,-4.32969 -0.2196,-1.5789 -1.07558,-2.96201 -2.54239,-4.10804 -0.27001,-0.21097 -1.05703,-0.79158 -1.74893,-1.29026 -1.43678,-1.03553 -2.0785,-1.55383 -2.48962,-2.01083 -0.62455,-0.69424 -1.09071,-1.54295 -1.32176,-2.40642 -0.17731,-0.66261 -0.19525,-2.13142 -0.0333,-2.73078 0.28124,-1.04121 0.57658,-1.59685 1.14388,-2.15196 0.88758,-0.86848 1.90615,-1.20592 3.46079,-1.14651 1.2989,0.0496 2.13217,0.39356 2.8437,1.17372 0.63868,0.70027 0.92355,1.59825 0.98066,3.09126 l 0.0357,0.93584 h -0.49974 -0.49974 v -0.7083 c 0,-0.74557 -0.10683,-1.41248 -0.31564,-1.9706 -0.14424,-0.3855 -0.62429,-0.93736 -1.01409,-1.16581 -0.82901,-0.48582 -2.21011,-0.57333 -3.25462,-0.20623 -1.36204,0.47872 -2.09833,1.82745 -2.0272,3.71341 0.0321,0.8491 0.17875,1.35935 0.58774,2.04386 0.53748,0.89956 1.15472,1.47638 2.96944,2.77501 1.99941,1.43078 2.71962,2.0594 3.40812,2.9747 0.43711,0.58108 0.90496,1.5494 1.10202,2.28087 0.14792,0.54904 0.16288,0.70808 0.16648,1.76923 0.005,1.34051 -0.0511,1.6365 -0.4671,2.48533 -0.20414,0.4165 -0.36177,0.62774 -0.78227,1.04835 -0.43735,0.43746 -0.6254,0.57522 -1.10944,0.81275 -0.8325,0.40851 -1.15852,0.48145 -2.27038,0.50795 -0.77544,0.0185 -1.05321,4.1e-4 -1.50347,-0.097 z m -35.59235,-0.10107 c -1.14685,-0.23925 -2.16331,-1.02244 -2.65826,-2.0482 -0.13842,-0.28689 -0.31417,-0.75634 -0.39053,-1.04322 l -0.13886,-0.52162 -0.0186,-8.76001 -0.0186,-8.76001 h 0.49254 0.49254 l 0.002,8.63727 c 0.002,9.54324 -0.0175,9.07207 0.39488,9.94051 0.47339,0.99683 1.24608,1.52861 2.43833,1.67811 1.33142,0.16694 2.62329,-0.32291 3.25017,-1.23241 0.2843,-0.41246 0.56731,-1.16868 0.65891,-1.76068 0.0477,-0.30801 0.0682,-2.98206 0.0682,-8.85206 v -8.41074 h 0.46127 0.46126 l -0.0163,8.79069 -0.0163,8.7907 -0.16901,0.53878 c -0.54626,1.74129 -1.52377,2.68367 -3.12727,3.01489 -0.58093,0.12 -1.58492,0.11906 -2.16531,-0.002 z m 11.19931,-10.57809 v -10.55497 h 0.42111 0.4211 l 3.95123,9.11601 3.95123,9.11602 0.0372,-7.96541 c 0.0205,-4.38096 0.0411,-8.48317 0.046,-9.116 l 0.009,-1.15062 h 0.46024 0.46025 v 10.55777 10.55777 l -0.41153,-0.0181 -0.41153,-0.0181 -3.9608,-9.137 -3.96081,-9.13699 -0.0155,9.15233 -0.0155,9.15234 h -0.49073 -0.49073 z m 15.70973,0 v -10.55497 h 0.49093 0.49093 v 10.55497 10.55497 h -0.49093 -0.49093 z"
       id="path313"
       inkscape:connector-curvature="0" />
  </g>
</svg>
